STARTFONT 2.1
FONT -windows-MonteCarloPanel-medium-r-normal--11-110-72-72-c-60-microsoft-cp1252
SIZE 12 75 75
FONTBOUNDINGBOX 6 11 0 -2
STARTPROPERTIES 24
FONTNAME_REGISTRY ""
FOUNDRY "Bok"
FAMILY_NAME "MonteCarloPanel"
WEIGHT_NAME "Medium"
SLANT "R"
SETWIDTH_NAME "Normal"
ADD_STYLE_NAME "Sans"
PIXEL_SIZE 12
POINT_SIZE 80
RESOLUTION_X 75
RESOLUTION_Y 75
SPACING "M"
AVERAGE_WIDTH 50
CHARSET_REGISTRY "ISO8859"
CHARSET_ENCODING "1"
COPYRIGHT "Copyright Gilles Boccon-Gibod 2004-2005"
FACE_NAME "MonteCarloPanel"
WEIGHT 10
X_HEIGHT 0
QUAD_WIDTH 6
_GBDFED_INFO "Edited with gbdfed 1.6."
DEFAULT_CHAR 0
FONT_DESCENT 3
FONT_ASCENT 9
ENDPROPERTIES
CHARS 421
STARTCHAR 0
ENCODING 32
SWIDTH 480 0
DWIDTH 6 0
BBX 0 0 0 0
BITMAP
ENDCHAR
STARTCHAR 1
ENCODING 33
SWIDTH 480 0
DWIDTH 6 0
BBX 1 7 2 0
BITMAP
80
80
80
80
80
00
80
ENDCHAR
STARTCHAR 2
ENCODING 34
SWIDTH 480 0
DWIDTH 6 0
BBX 3 3 1 5
BITMAP
A0
A0
A0
ENDCHAR
STARTCHAR 3
ENCODING 35
SWIDTH 480 0
DWIDTH 6 0
BBX 5 5 0 2
BITMAP
50
F8
50
F8
50
ENDCHAR
STARTCHAR 4
ENCODING 36
SWIDTH 480 0
DWIDTH 6 0
BBX 5 9 0 -1
BITMAP
20
70
A8
A0
70
28
A8
70
20
ENDCHAR
STARTCHAR 5
ENCODING 37
SWIDTH 480 0
DWIDTH 6 0
BBX 5 7 0 0
BITMAP
48
A8
50
20
50
A8
90
ENDCHAR
STARTCHAR 6
ENCODING 38
SWIDTH 480 0
DWIDTH 6 0
BBX 5 7 0 0
BITMAP
60
90
A0
40
A8
90
68
ENDCHAR
STARTCHAR 7
ENCODING 39
SWIDTH 480 0
DWIDTH 6 0
BBX 1 3 2 5
BITMAP
80
80
80
ENDCHAR
STARTCHAR 8
ENCODING 40
SWIDTH 480 0
DWIDTH 6 0
BBX 3 9 1 -1
BITMAP
20
40
40
80
80
80
40
40
20
ENDCHAR
STARTCHAR 9
ENCODING 41
SWIDTH 480 0
DWIDTH 6 0
BBX 3 9 1 -1
BITMAP
80
40
40
20
20
20
40
40
80
ENDCHAR
STARTCHAR 10
ENCODING 42
SWIDTH 480 0
DWIDTH 6 0
BBX 5 5 0 1
BITMAP
20
A8
70
A8
20
ENDCHAR
STARTCHAR 11
ENCODING 43
SWIDTH 480 0
DWIDTH 6 0
BBX 5 5 0 1
BITMAP
20
20
F8
20
20
ENDCHAR
STARTCHAR 12
ENCODING 44
SWIDTH 480 0
DWIDTH 6 0
BBX 2 4 1 -2
BITMAP
C0
C0
40
80
ENDCHAR
STARTCHAR 13
ENCODING 45
SWIDTH 480 0
DWIDTH 6 0
BBX 3 1 1 3
BITMAP
E0
ENDCHAR
STARTCHAR 14
ENCODING 46
SWIDTH 480 0
DWIDTH 6 0
BBX 2 2 2 0
BITMAP
C0
C0
ENDCHAR
STARTCHAR 15
ENCODING 47
SWIDTH 480 0
DWIDTH 6 0
BBX 5 10 0 -2
BITMAP
08
08
10
10
20
20
40
40
80
80
ENDCHAR
STARTCHAR 16
ENCODING 48
SWIDTH 480 0
DWIDTH 6 0
BBX 5 7 0 0
BITMAP
70
88
98
A8
C8
88
70
ENDCHAR
STARTCHAR 17
ENCODING 49
SWIDTH 480 0
DWIDTH 6 0
BBX 2 7 1 0
BITMAP
40
C0
40
40
40
40
40
ENDCHAR
STARTCHAR 18
ENCODING 50
SWIDTH 480 0
DWIDTH 6 0
BBX 5 7 0 0
BITMAP
70
88
08
10
20
40
F8
ENDCHAR
STARTCHAR 19
ENCODING 51
SWIDTH 480 0
DWIDTH 6 0
BBX 5 7 0 0
BITMAP
70
88
08
30
08
88
70
ENDCHAR
STARTCHAR 20
ENCODING 52
SWIDTH 480 0
DWIDTH 6 0
BBX 5 7 0 0
BITMAP
10
30
50
90
F8
10
10
ENDCHAR
STARTCHAR 21
ENCODING 53
SWIDTH 480 0
DWIDTH 6 0
BBX 5 7 0 0
BITMAP
F8
80
F0
08
08
88
70
ENDCHAR
STARTCHAR 22
ENCODING 54
SWIDTH 480 0
DWIDTH 6 0
BBX 5 7 0 0
BITMAP
70
80
F0
88
88
88
70
ENDCHAR
STARTCHAR 23
ENCODING 55
SWIDTH 480 0
DWIDTH 6 0
BBX 5 7 0 0
BITMAP
F8
08
08
10
20
20
20
ENDCHAR
STARTCHAR 24
ENCODING 56
SWIDTH 480 0
DWIDTH 6 0
BBX 5 7 0 0
BITMAP
70
88
88
70
88
88
70
ENDCHAR
STARTCHAR 25
ENCODING 57
SWIDTH 480 0
DWIDTH 6 0
BBX 5 7 0 0
BITMAP
70
88
88
88
78
08
70
ENDCHAR
STARTCHAR 26
ENCODING 58
SWIDTH 480 0
DWIDTH 6 0
BBX 2 5 2 0
BITMAP
C0
C0
00
C0
C0
ENDCHAR
STARTCHAR 27
ENCODING 59
SWIDTH 480 0
DWIDTH 6 0
BBX 2 7 1 -2
BITMAP
C0
C0
00
C0
C0
40
80
ENDCHAR
STARTCHAR 28
ENCODING 60
SWIDTH 480 0
DWIDTH 6 0
BBX 4 7 1 0
BITMAP
10
20
40
80
40
20
10
ENDCHAR
STARTCHAR 29
ENCODING 61
SWIDTH 480 0
DWIDTH 6 0
BBX 5 3 0 2
BITMAP
F8
00
F8
ENDCHAR
STARTCHAR 30
ENCODING 62
SWIDTH 480 0
DWIDTH 6 0
BBX 4 7 1 0
BITMAP
80
40
20
10
20
40
80
ENDCHAR
STARTCHAR 31
ENCODING 63
SWIDTH 480 0
DWIDTH 6 0
BBX 5 7 0 0
BITMAP
70
88
08
10
20
00
20
ENDCHAR
STARTCHAR 32
ENCODING 64
SWIDTH 480 0
DWIDTH 6 0
BBX 5 7 0 0
BITMAP
70
88
B8
A8
B8
80
78
ENDCHAR
STARTCHAR 33
ENCODING 65
SWIDTH 480 0
DWIDTH 6 0
BBX 5 7 0 0
BITMAP
70
88
88
F8
88
88
88
ENDCHAR
STARTCHAR 34
ENCODING 66
SWIDTH 480 0
DWIDTH 6 0
BBX 5 7 0 0
BITMAP
F0
88
88
F0
88
88
F0
ENDCHAR
STARTCHAR 35
ENCODING 67
SWIDTH 480 0
DWIDTH 6 0
BBX 5 7 0 0
BITMAP
70
88
80
80
80
88
70
ENDCHAR
STARTCHAR 36
ENCODING 68
SWIDTH 480 0
DWIDTH 6 0
BBX 5 7 0 0
BITMAP
F0
88
88
88
88
88
F0
ENDCHAR
STARTCHAR 37
ENCODING 69
SWIDTH 480 0
DWIDTH 6 0
BBX 5 7 0 0
BITMAP
F8
80
80
F0
80
80
F8
ENDCHAR
STARTCHAR 38
ENCODING 70
SWIDTH 480 0
DWIDTH 6 0
BBX 5 7 0 0
BITMAP
F8
80
80
F0
80
80
80
ENDCHAR
STARTCHAR 39
ENCODING 71
SWIDTH 480 0
DWIDTH 6 0
BBX 5 7 0 0
BITMAP
70
88
80
98
88
88
70
ENDCHAR
STARTCHAR 40
ENCODING 72
SWIDTH 480 0
DWIDTH 6 0
BBX 5 7 0 0
BITMAP
88
88
88
F8
88
88
88
ENDCHAR
STARTCHAR 41
ENCODING 73
SWIDTH 480 0
DWIDTH 6 0
BBX 3 7 1 0
BITMAP
E0
40
40
40
40
40
E0
ENDCHAR
STARTCHAR 42
ENCODING 74
SWIDTH 480 0
DWIDTH 6 0
BBX 5 7 0 0
BITMAP
08
08
08
08
88
88
70
ENDCHAR
STARTCHAR 43
ENCODING 75
SWIDTH 480 0
DWIDTH 6 0
BBX 5 7 0 0
BITMAP
88
90
A0
C0
A0
90
88
ENDCHAR
STARTCHAR 44
ENCODING 76
SWIDTH 480 0
DWIDTH 6 0
BBX 5 7 0 0
BITMAP
80
80
80
80
80
80
F8
ENDCHAR
STARTCHAR 45
ENCODING 77
SWIDTH 480 0
DWIDTH 6 0
BBX 5 7 0 0
BITMAP
88
D8
A8
88
88
88
88
ENDCHAR
STARTCHAR 46
ENCODING 78
SWIDTH 480 0
DWIDTH 6 0
BBX 5 7 0 0
BITMAP
88
C8
A8
98
88
88
88
ENDCHAR
STARTCHAR 47
ENCODING 79
SWIDTH 480 0
DWIDTH 6 0
BBX 5 7 0 0
BITMAP
70
88
88
88
88
88
70
ENDCHAR
STARTCHAR 48
ENCODING 80
SWIDTH 480 0
DWIDTH 6 0
BBX 5 7 0 0
BITMAP
F0
88
88
F0
80
80
80
ENDCHAR
STARTCHAR 49
ENCODING 81
SWIDTH 480 0
DWIDTH 6 0
BBX 5 8 0 -1
BITMAP
70
88
88
88
88
88
70
08
ENDCHAR
STARTCHAR 50
ENCODING 82
SWIDTH 480 0
DWIDTH 6 0
BBX 5 7 0 0
BITMAP
F0
88
88
F0
88
88
88
ENDCHAR
STARTCHAR 51
ENCODING 83
SWIDTH 480 0
DWIDTH 6 0
BBX 5 7 0 0
BITMAP
70
88
80
70
08
88
70
ENDCHAR
STARTCHAR 52
ENCODING 84
SWIDTH 480 0
DWIDTH 6 0
BBX 5 7 0 0
BITMAP
F8
20
20
20
20
20
20
ENDCHAR
STARTCHAR 53
ENCODING 85
SWIDTH 480 0
DWIDTH 6 0
BBX 5 7 0 0
BITMAP
88
88
88
88
88
88
70
ENDCHAR
STARTCHAR 54
ENCODING 86
SWIDTH 480 0
DWIDTH 6 0
BBX 5 7 0 0
BITMAP
88
88
88
50
50
20
20
ENDCHAR
STARTCHAR 55
ENCODING 87
SWIDTH 480 0
DWIDTH 6 0
BBX 5 7 0 0
BITMAP
88
88
88
88
A8
D8
88
ENDCHAR
STARTCHAR 56
ENCODING 88
SWIDTH 480 0
DWIDTH 6 0
BBX 5 7 0 0
BITMAP
88
88
50
20
50
88
88
ENDCHAR
STARTCHAR 57
ENCODING 89
SWIDTH 480 0
DWIDTH 6 0
BBX 5 7 0 0
BITMAP
88
88
88
50
20
20
20
ENDCHAR
STARTCHAR 58
ENCODING 90
SWIDTH 480 0
DWIDTH 6 0
BBX 5 7 0 0
BITMAP
F8
08
10
20
40
80
F8
ENDCHAR
STARTCHAR 59
ENCODING 91
SWIDTH 480 0
DWIDTH 6 0
BBX 2 9 2 -1
BITMAP
C0
80
80
80
80
80
80
80
C0
ENDCHAR
STARTCHAR 60
ENCODING 92
SWIDTH 480 0
DWIDTH 6 0
BBX 5 10 1 -2
BITMAP
80
80
40
40
20
20
10
10
08
08
ENDCHAR
STARTCHAR 61
ENCODING 93
SWIDTH 480 0
DWIDTH 6 0
BBX 2 9 1 -1
BITMAP
C0
40
40
40
40
40
40
40
C0
ENDCHAR
STARTCHAR 62
ENCODING 94
SWIDTH 480 0
DWIDTH 6 0
BBX 5 3 0 4
BITMAP
20
50
88
ENDCHAR
STARTCHAR 63
ENCODING 95
SWIDTH 480 0
DWIDTH 6 0
BBX 6 1 0 -1
BITMAP
FC
ENDCHAR
STARTCHAR 64
ENCODING 96
SWIDTH 480 0
DWIDTH 6 0
BBX 3 3 1 5
BITMAP
80
40
20
ENDCHAR
STARTCHAR 65
ENCODING 97
SWIDTH 480 0
DWIDTH 6 0
BBX 5 5 0 0
BITMAP
78
88
88
88
78
ENDCHAR
STARTCHAR 66
ENCODING 98
SWIDTH 480 0
DWIDTH 6 0
BBX 5 7 0 0
BITMAP
80
80
F0
88
88
88
F0
ENDCHAR
STARTCHAR 67
ENCODING 99
SWIDTH 480 0
DWIDTH 6 0
BBX 5 5 0 0
BITMAP
78
80
80
80
78
ENDCHAR
STARTCHAR 68
ENCODING 100
SWIDTH 480 0
DWIDTH 6 0
BBX 5 7 0 0
BITMAP
08
08
78
88
88
88
78
ENDCHAR
STARTCHAR 69
ENCODING 101
SWIDTH 480 0
DWIDTH 6 0
BBX 5 5 0 0
BITMAP
70
88
F8
80
78
ENDCHAR
STARTCHAR 70
ENCODING 102
SWIDTH 480 0
DWIDTH 6 0
BBX 3 7 1 0
BITMAP
60
80
80
E0
80
80
80
ENDCHAR
STARTCHAR 71
ENCODING 103
SWIDTH 480 0
DWIDTH 6 0
BBX 5 7 0 -2
BITMAP
78
88
88
88
78
08
70
ENDCHAR
STARTCHAR 72
ENCODING 104
SWIDTH 480 0
DWIDTH 6 0
BBX 5 7 0 0
BITMAP
80
80
F0
88
88
88
88
ENDCHAR
STARTCHAR 73
ENCODING 105
SWIDTH 480 0
DWIDTH 6 0
BBX 1 7 2 0
BITMAP
80
00
80
80
80
80
80
ENDCHAR
STARTCHAR 74
ENCODING 106
SWIDTH 480 0
DWIDTH 6 0
BBX 2 9 1 -2
BITMAP
40
00
40
40
40
40
40
40
80
ENDCHAR
STARTCHAR 75
ENCODING 107
SWIDTH 480 0
DWIDTH 6 0
BBX 5 7 0 0
BITMAP
80
80
90
A0
E0
90
88
ENDCHAR
STARTCHAR 76
ENCODING 108
SWIDTH 480 0
DWIDTH 6 0
BBX 2 7 2 0
BITMAP
80
80
80
80
80
80
40
ENDCHAR
STARTCHAR 77
ENCODING 109
SWIDTH 480 0
DWIDTH 6 0
BBX 5 5 0 0
BITMAP
F0
A8
A8
A8
A8
ENDCHAR
STARTCHAR 78
ENCODING 110
SWIDTH 480 0
DWIDTH 6 0
BBX 5 5 0 0
BITMAP
F0
88
88
88
88
ENDCHAR
STARTCHAR 79
ENCODING 111
SWIDTH 480 0
DWIDTH 6 0
BBX 5 5 0 0
BITMAP
70
88
88
88
70
ENDCHAR
STARTCHAR 80
ENCODING 112
SWIDTH 480 0
DWIDTH 6 0
BBX 5 7 0 -2
BITMAP
F0
88
88
88
F0
80
80
ENDCHAR
STARTCHAR 81
ENCODING 113
SWIDTH 480 0
DWIDTH 6 0
BBX 5 7 0 -2
BITMAP
78
88
88
88
78
08
08
ENDCHAR
STARTCHAR 82
ENCODING 114
SWIDTH 480 0
DWIDTH 6 0
BBX 5 5 0 0
BITMAP
B0
C8
80
80
80
ENDCHAR
STARTCHAR 83
ENCODING 115
SWIDTH 480 0
DWIDTH 6 0
BBX 5 5 0 0
BITMAP
78
80
70
08
F0
ENDCHAR
STARTCHAR 84
ENCODING 116
SWIDTH 480 0
DWIDTH 6 0
BBX 3 7 1 0
BITMAP
40
40
E0
40
40
40
20
ENDCHAR
STARTCHAR 85
ENCODING 117
SWIDTH 480 0
DWIDTH 6 0
BBX 5 5 0 0
BITMAP
88
88
88
88
78
ENDCHAR
STARTCHAR 86
ENCODING 118
SWIDTH 480 0
DWIDTH 6 0
BBX 5 5 0 0
BITMAP
88
88
50
50
20
ENDCHAR
STARTCHAR 87
ENCODING 119
SWIDTH 480 0
DWIDTH 6 0
BBX 5 5 0 0
BITMAP
A8
A8
A8
A8
50
ENDCHAR
STARTCHAR 88
ENCODING 120
SWIDTH 480 0
DWIDTH 6 0
BBX 5 5 0 0
BITMAP
88
50
20
50
88
ENDCHAR
STARTCHAR 89
ENCODING 121
SWIDTH 480 0
DWIDTH 6 0
BBX 5 7 0 -2
BITMAP
88
88
88
88
78
08
70
ENDCHAR
STARTCHAR 90
ENCODING 122
SWIDTH 480 0
DWIDTH 6 0
BBX 5 5 0 0
BITMAP
F8
10
20
40
F8
ENDCHAR
STARTCHAR 91
ENCODING 123
SWIDTH 480 0
DWIDTH 6 0
BBX 6 11 0 -2
BITMAP
10
20
20
20
20
40
20
20
20
20
10
ENDCHAR
STARTCHAR 92
ENCODING 124
SWIDTH 480 0
DWIDTH 6 0
BBX 1 9 2 -1
BITMAP
80
80
80
80
80
80
80
80
80
ENDCHAR
STARTCHAR 93
ENCODING 125
SWIDTH 480 0
DWIDTH 6 0
BBX 6 11 0 -2
BITMAP
40
20
20
20
20
10
20
20
20
20
40
ENDCHAR
STARTCHAR 94
ENCODING 126
SWIDTH 480 0
DWIDTH 6 0
BBX 6 2 0 2
BITMAP
64
98
ENDCHAR
STARTCHAR 95
ENCODING 127
SWIDTH 480 0
DWIDTH 6 0
BBX 0 0 0 0
BITMAP
ENDCHAR
STARTCHAR 96
ENCODING 128
SWIDTH 480 0
DWIDTH 6 0
BBX 0 0 0 0
BITMAP
ENDCHAR
STARTCHAR 97
ENCODING 129
SWIDTH 480 0
DWIDTH 6 0
BBX 0 0 0 0
BITMAP
ENDCHAR
STARTCHAR 98
ENCODING 130
SWIDTH 480 0
DWIDTH 6 0
BBX 2 3 0 -1
BITMAP
40
40
80
ENDCHAR
STARTCHAR 99
ENCODING 131
SWIDTH 480 0
DWIDTH 6 0
BBX 6 11 0 -2
BITMAP
18
20
20
20
70
20
20
20
20
20
C0
ENDCHAR
STARTCHAR 100
ENCODING 132
SWIDTH 480 0
DWIDTH 6 0
BBX 4 3 0 -1
BITMAP
50
50
A0
ENDCHAR
STARTCHAR 101
ENCODING 133
SWIDTH 480 0
DWIDTH 6 0
BBX 5 1 0 0
BITMAP
A8
ENDCHAR
STARTCHAR 102
ENCODING 134
SWIDTH 480 0
DWIDTH 6 0
BBX 3 5 1 2
BITMAP
40
E0
40
40
40
ENDCHAR
STARTCHAR 103
ENCODING 135
SWIDTH 480 0
DWIDTH 6 0
BBX 3 5 1 2
BITMAP
40
E0
40
E0
40
ENDCHAR
STARTCHAR 104
ENCODING 136
SWIDTH 480 0
DWIDTH 6 0
BBX 3 2 1 6
BITMAP
40
A0
ENDCHAR
STARTCHAR 105
ENCODING 137
SWIDTH 480 0
DWIDTH 6 0
BBX 6 7 0 0
BITMAP
40
A8
50
20
48
B4
48
ENDCHAR
STARTCHAR 106
ENCODING 138
SWIDTH 480 0
DWIDTH 6 0
BBX 5 9 0 0
BITMAP
50
20
70
88
80
70
08
88
70
ENDCHAR
STARTCHAR 107
ENCODING 139
SWIDTH 480 0
DWIDTH 6 0
BBX 2 4 0 0
BITMAP
40
80
80
40
ENDCHAR
STARTCHAR 108
ENCODING 140
SWIDTH 480 0
DWIDTH 6 0
BBX 5 7 0 0
BITMAP
78
A0
A0
B0
A0
A0
78
ENDCHAR
STARTCHAR 109
ENCODING 141
SWIDTH 480 0
DWIDTH 6 0
BBX 0 0 0 0
BITMAP
ENDCHAR
STARTCHAR 110
ENCODING 142
SWIDTH 480 0
DWIDTH 6 0
BBX 0 0 0 0
BITMAP
ENDCHAR
STARTCHAR 111
ENCODING 143
SWIDTH 480 0
DWIDTH 6 0
BBX 0 0 0 0
BITMAP
ENDCHAR
STARTCHAR 112
ENCODING 144
SWIDTH 480 0
DWIDTH 6 0
BBX 0 0 0 0
BITMAP
ENDCHAR
STARTCHAR 113
ENCODING 145
SWIDTH 480 0
DWIDTH 6 0
BBX 2 3 2 4
BITMAP
40
80
80
ENDCHAR
STARTCHAR 114
ENCODING 146
SWIDTH 480 0
DWIDTH 6 0
BBX 2 3 2 4
BITMAP
40
40
80
ENDCHAR
STARTCHAR 115
ENCODING 147
SWIDTH 480 0
DWIDTH 6 0
BBX 4 3 1 4
BITMAP
50
A0
A0
ENDCHAR
STARTCHAR 116
ENCODING 148
SWIDTH 480 0
DWIDTH 6 0
BBX 4 3 1 4
BITMAP
50
50
A0
ENDCHAR
STARTCHAR 117
ENCODING 149
SWIDTH 480 0
DWIDTH 6 0
BBX 5 5 0 1
BITMAP
70
F8
F8
F8
70
ENDCHAR
STARTCHAR 118
ENCODING 150
SWIDTH 480 0
DWIDTH 6 0
BBX 3 1 1 3
BITMAP
E0
ENDCHAR
STARTCHAR 119
ENCODING 151
SWIDTH 480 0
DWIDTH 6 0
BBX 6 1 0 3
BITMAP
FC
ENDCHAR
STARTCHAR 120
ENCODING 152
SWIDTH 480 0
DWIDTH 6 0
BBX 5 2 0 6
BITMAP
68
B0
ENDCHAR
STARTCHAR 121
ENCODING 153
SWIDTH 480 0
DWIDTH 6 0
BBX 6 3 0 4
BITMAP
F4
5C
5C
ENDCHAR
STARTCHAR 122
ENCODING 154
SWIDTH 480 0
DWIDTH 6 0
BBX 5 8 0 0
BITMAP
50
20
00
78
80
70
08
F0
ENDCHAR
STARTCHAR 123
ENCODING 155
SWIDTH 480 0
DWIDTH 6 0
BBX 2 4 0 0
BITMAP
80
40
40
80
ENDCHAR
STARTCHAR 124
ENCODING 156
SWIDTH 480 0
DWIDTH 6 0
BBX 5 5 0 0
BITMAP
50
A8
B8
A0
58
ENDCHAR
STARTCHAR 125
ENCODING 157
SWIDTH 480 0
DWIDTH 6 0
BBX 0 0 0 0
BITMAP
ENDCHAR
STARTCHAR 126
ENCODING 158
SWIDTH 480 0
DWIDTH 6 0
BBX 0 0 0 0
BITMAP
ENDCHAR
STARTCHAR 127
ENCODING 159
SWIDTH 480 0
DWIDTH 6 0
BBX 5 9 0 0
BITMAP
50
00
88
88
88
50
20
20
20
ENDCHAR
STARTCHAR 128
ENCODING 160
SWIDTH 480 0
DWIDTH 6 0
BBX 0 0 0 0
BITMAP
ENDCHAR
STARTCHAR 129
ENCODING 161
SWIDTH 480 0
DWIDTH 6 0
BBX 1 7 3 0
BITMAP
80
00
80
80
80
80
80
ENDCHAR
STARTCHAR 130
ENCODING 162
SWIDTH 480 0
DWIDTH 6 0
BBX 5 7 0 -1
BITMAP
20
78
A0
A0
A0
78
20
ENDCHAR
STARTCHAR 131
ENCODING 163
SWIDTH 480 0
DWIDTH 6 0
BBX 5 8 0 0
BITMAP
60
90
80
E0
80
80
88
F0
ENDCHAR
STARTCHAR 132
ENCODING 164
SWIDTH 480 0
DWIDTH 6 0
BBX 5 5 0 0
BITMAP
88
70
50
70
88
ENDCHAR
STARTCHAR 133
ENCODING 165
SWIDTH 480 0
DWIDTH 6 0
BBX 5 7 0 0
BITMAP
88
50
F8
20
F8
20
20
ENDCHAR
STARTCHAR 134
ENCODING 166
SWIDTH 480 0
DWIDTH 6 0
BBX 1 9 2 -1
BITMAP
80
80
80
80
00
80
80
80
80
ENDCHAR
STARTCHAR 135
ENCODING 167
SWIDTH 480 0
DWIDTH 6 0
BBX 6 11 0 -2
BITMAP
30
48
40
20
50
48
28
10
08
48
30
ENDCHAR
STARTCHAR 136
ENCODING 168
SWIDTH 480 0
DWIDTH 6 0
BBX 3 1 1 6
BITMAP
A0
ENDCHAR
STARTCHAR 137
ENCODING 169
SWIDTH 480 0
DWIDTH 6 0
BBX 5 7 0 0
BITMAP
E0
10
68
88
68
10
E0
ENDCHAR
STARTCHAR 138
ENCODING 170
SWIDTH 480 0
DWIDTH 6 0
BBX 4 6 1 3
BITMAP
70
90
90
70
00
F0
ENDCHAR
STARTCHAR 139
ENCODING 171
SWIDTH 480 0
DWIDTH 6 0
BBX 5 4 0 0
BITMAP
48
90
90
48
ENDCHAR
STARTCHAR 140
ENCODING 172
SWIDTH 480 0
DWIDTH 6 0
BBX 5 3 0 1
BITMAP
F8
08
08
ENDCHAR
STARTCHAR 141
ENCODING 173
SWIDTH 480 0
DWIDTH 6 0
BBX 5 1 0 3
BITMAP
F8
ENDCHAR
STARTCHAR 142
ENCODING 174
SWIDTH 480 0
DWIDTH 6 0
BBX 5 6 0 1
BITMAP
E0
10
C8
A8
C8
B0
ENDCHAR
STARTCHAR 143
ENCODING 175
SWIDTH 480 0
DWIDTH 6 0
BBX 3 1 1 6
BITMAP
E0
ENDCHAR
STARTCHAR 144
ENCODING 176
SWIDTH 480 0
DWIDTH 6 0
BBX 4 4 1 4
BITMAP
60
90
90
60
ENDCHAR
STARTCHAR 145
ENCODING 177
SWIDTH 480 0
DWIDTH 6 0
BBX 5 6 0 0
BITMAP
20
20
F8
20
20
F8
ENDCHAR
STARTCHAR 146
ENCODING 178
SWIDTH 480 0
DWIDTH 6 0
BBX 3 4 1 5
BITMAP
C0
20
40
E0
ENDCHAR
STARTCHAR 147
ENCODING 179
SWIDTH 480 0
DWIDTH 6 0
BBX 3 5 1 4
BITMAP
C0
20
60
20
C0
ENDCHAR
STARTCHAR 148
ENCODING 180
SWIDTH 480 0
DWIDTH 6 0
BBX 3 2 2 6
BITMAP
60
C0
ENDCHAR
STARTCHAR 149
ENCODING 181
SWIDTH 480 0
DWIDTH 6 0
BBX 5 7 0 -2
BITMAP
90
90
90
90
E8
80
80
ENDCHAR
STARTCHAR 150
ENCODING 182
SWIDTH 480 0
DWIDTH 6 0
BBX 5 8 0 0
BITMAP
78
A8
A8
A8
78
28
28
28
ENDCHAR
STARTCHAR 151
ENCODING 183
SWIDTH 480 0
DWIDTH 6 0
BBX 2 2 2 2
BITMAP
C0
C0
ENDCHAR
STARTCHAR 152
ENCODING 184
SWIDTH 480 0
DWIDTH 6 0
BBX 3 3 1 -2
BITMAP
E0
60
C0
ENDCHAR
STARTCHAR 153
ENCODING 185
SWIDTH 480 0
DWIDTH 6 0
BBX 3 4 1 5
BITMAP
C0
40
40
E0
ENDCHAR
STARTCHAR 154
ENCODING 186
SWIDTH 480 0
DWIDTH 6 0
BBX 4 6 1 3
BITMAP
60
90
90
60
00
F0
ENDCHAR
STARTCHAR 155
ENCODING 187
SWIDTH 480 0
DWIDTH 6 0
BBX 5 4 0 0
BITMAP
90
48
48
90
ENDCHAR
STARTCHAR 156
ENCODING 188
SWIDTH 480 0
DWIDTH 6 0
BBX 6 9 0 0
BITMAP
C0
40
44
E8
10
28
58
B8
08
ENDCHAR
STARTCHAR 157
ENCODING 189
SWIDTH 480 0
DWIDTH 6 0
BBX 6 9 0 0
BITMAP
C0
40
44
E8
10
38
44
88
1C
ENDCHAR
STARTCHAR 158
ENCODING 190
SWIDTH 480 0
DWIDTH 6 0
BBX 6 9 0 0
BITMAP
C0
20
64
28
D0
28
58
B8
08
ENDCHAR
STARTCHAR 159
ENCODING 191
SWIDTH 480 0
DWIDTH 6 0
BBX 5 7 0 0
BITMAP
20
00
20
40
80
88
70
ENDCHAR
STARTCHAR 160
ENCODING 192
SWIDTH 480 0
DWIDTH 6 0
BBX 5 9 0 0
BITMAP
40
20
70
88
88
F8
88
88
88
ENDCHAR
STARTCHAR 161
ENCODING 193
SWIDTH 480 0
DWIDTH 6 0
BBX 5 9 0 0
BITMAP
10
20
70
88
88
F8
88
88
88
ENDCHAR
STARTCHAR 162
ENCODING 194
SWIDTH 480 0
DWIDTH 6 0
BBX 5 9 0 0
BITMAP
20
50
00
70
88
88
F8
88
88
ENDCHAR
STARTCHAR 163
ENCODING 195
SWIDTH 480 0
DWIDTH 6 0
BBX 5 9 0 0
BITMAP
68
B0
00
70
88
88
F8
88
88
ENDCHAR
STARTCHAR 164
ENCODING 196
SWIDTH 480 0
DWIDTH 6 0
BBX 5 9 0 0
BITMAP
50
00
70
88
88
F8
88
88
88
ENDCHAR
STARTCHAR 165
ENCODING 197
SWIDTH 480 0
DWIDTH 6 0
BBX 5 9 0 0
BITMAP
20
50
20
70
88
88
F8
88
88
ENDCHAR
STARTCHAR 166
ENCODING 198
SWIDTH 480 0
DWIDTH 6 0
BBX 5 7 0 0
BITMAP
78
A0
A0
F0
A0
A0
B8
ENDCHAR
STARTCHAR 167
ENCODING 199
SWIDTH 480 0
DWIDTH 6 0
BBX 5 9 0 -2
BITMAP
70
88
80
80
80
88
70
20
40
ENDCHAR
STARTCHAR 168
ENCODING 200
SWIDTH 480 0
DWIDTH 6 0
BBX 5 9 0 0
BITMAP
40
20
F8
80
80
F0
80
80
F8
ENDCHAR
STARTCHAR 169
ENCODING 201
SWIDTH 480 0
DWIDTH 6 0
BBX 5 9 0 0
BITMAP
10
20
F8
80
80
F0
80
80
F8
ENDCHAR
STARTCHAR 170
ENCODING 202
SWIDTH 480 0
DWIDTH 6 0
BBX 5 9 0 0
BITMAP
20
50
F8
80
80
F0
80
80
F8
ENDCHAR
STARTCHAR 171
ENCODING 203
SWIDTH 480 0
DWIDTH 6 0
BBX 5 9 0 0
BITMAP
50
00
F8
80
80
F0
80
80
F8
ENDCHAR
STARTCHAR 172
ENCODING 204
SWIDTH 480 0
DWIDTH 6 0
BBX 2 9 2 0
BITMAP
80
40
00
80
80
80
80
80
80
ENDCHAR
STARTCHAR 173
ENCODING 205
SWIDTH 480 0
DWIDTH 6 0
BBX 2 9 1 0
BITMAP
40
80
00
40
40
40
40
40
40
ENDCHAR
STARTCHAR 174
ENCODING 206
SWIDTH 480 0
DWIDTH 6 0
BBX 3 9 1 0
BITMAP
40
A0
00
40
40
40
40
40
40
ENDCHAR
STARTCHAR 175
ENCODING 207
SWIDTH 480 0
DWIDTH 6 0
BBX 3 9 1 0
BITMAP
A0
00
40
40
40
40
40
40
40
ENDCHAR
STARTCHAR 176
ENCODING 208
SWIDTH 480 0
DWIDTH 6 0
BBX 5 7 0 0
BITMAP
70
48
48
E8
48
48
70
ENDCHAR
STARTCHAR 177
ENCODING 209
SWIDTH 480 0
DWIDTH 6 0
BBX 5 9 0 0
BITMAP
68
B0
88
C8
A8
98
88
88
88
ENDCHAR
STARTCHAR 178
ENCODING 210
SWIDTH 480 0
DWIDTH 6 0
BBX 5 9 0 0
BITMAP
40
20
70
88
88
88
88
88
70
ENDCHAR
STARTCHAR 179
ENCODING 211
SWIDTH 480 0
DWIDTH 6 0
BBX 5 9 0 0
BITMAP
10
20
70
88
88
88
88
88
70
ENDCHAR
STARTCHAR 180
ENCODING 212
SWIDTH 480 0
DWIDTH 6 0
BBX 5 9 0 0
BITMAP
20
50
00
70
88
88
88
88
70
ENDCHAR
STARTCHAR 181
ENCODING 213
SWIDTH 480 0
DWIDTH 6 0
BBX 5 9 0 0
BITMAP
68
B0
70
88
88
88
88
88
70
ENDCHAR
STARTCHAR 182
ENCODING 214
SWIDTH 480 0
DWIDTH 6 0
BBX 5 9 0 0
BITMAP
50
00
70
88
88
88
88
88
70
ENDCHAR
STARTCHAR 183
ENCODING 215
SWIDTH 480 0
DWIDTH 6 0
BBX 5 5 0 1
BITMAP
88
50
20
50
88
ENDCHAR
STARTCHAR 184
ENCODING 216
SWIDTH 480 0
DWIDTH 6 0
BBX 5 7 0 0
BITMAP
70
88
98
A8
C8
88
70
ENDCHAR
STARTCHAR 185
ENCODING 217
SWIDTH 480 0
DWIDTH 6 0
BBX 5 9 0 0
BITMAP
40
20
88
88
88
88
88
88
70
ENDCHAR
STARTCHAR 186
ENCODING 218
SWIDTH 480 0
DWIDTH 6 0
BBX 5 9 0 0
BITMAP
10
20
88
88
88
88
88
88
70
ENDCHAR
STARTCHAR 187
ENCODING 219
SWIDTH 480 0
DWIDTH 6 0
BBX 5 9 0 0
BITMAP
10
20
88
88
88
88
88
88
70
ENDCHAR
STARTCHAR 188
ENCODING 220
SWIDTH 480 0
DWIDTH 6 0
BBX 5 9 0 0
BITMAP
50
00
88
88
88
88
88
88
70
ENDCHAR
STARTCHAR 189
ENCODING 221
SWIDTH 480 0
DWIDTH 6 0
BBX 5 9 0 0
BITMAP
10
20
88
88
88
50
20
20
20
ENDCHAR
STARTCHAR 190
ENCODING 222
SWIDTH 480 0
DWIDTH 6 0
BBX 5 7 0 0
BITMAP
80
F0
88
88
F0
80
80
ENDCHAR
STARTCHAR 191
ENCODING 223
SWIDTH 480 0
DWIDTH 6 0
BBX 5 9 0 -1
BITMAP
30
48
88
90
90
88
88
B0
80
ENDCHAR
STARTCHAR 192
ENCODING 224
SWIDTH 480 0
DWIDTH 6 0
BBX 5 8 0 0
BITMAP
20
10
00
78
88
88
88
78
ENDCHAR
STARTCHAR 193
ENCODING 225
SWIDTH 480 0
DWIDTH 6 0
BBX 5 8 0 0
BITMAP
10
20
00
78
88
88
88
78
ENDCHAR
STARTCHAR 194
ENCODING 226
SWIDTH 480 0
DWIDTH 6 0
BBX 5 8 0 0
BITMAP
20
50
00
78
88
88
88
78
ENDCHAR
STARTCHAR 195
ENCODING 227
SWIDTH 480 0
DWIDTH 6 0
BBX 5 8 0 0
BITMAP
68
B0
00
78
88
88
88
78
ENDCHAR
STARTCHAR 196
ENCODING 228
SWIDTH 480 0
DWIDTH 6 0
BBX 5 7 0 0
BITMAP
50
00
78
88
88
88
78
ENDCHAR
STARTCHAR 197
ENCODING 229
SWIDTH 480 0
DWIDTH 6 0
BBX 5 8 0 0
BITMAP
20
50
20
78
88
88
88
78
ENDCHAR
STARTCHAR 198
ENCODING 230
SWIDTH 480 0
DWIDTH 6 0
BBX 5 5 0 0
BITMAP
70
A8
B8
A0
78
ENDCHAR
STARTCHAR 199
ENCODING 231
SWIDTH 480 0
DWIDTH 6 0
BBX 5 7 0 -2
BITMAP
78
80
80
80
78
20
40
ENDCHAR
STARTCHAR 200
ENCODING 232
SWIDTH 480 0
DWIDTH 6 0
BBX 5 8 0 0
BITMAP
40
20
00
70
88
F8
80
70
ENDCHAR
STARTCHAR 201
ENCODING 233
SWIDTH 480 0
DWIDTH 6 0
BBX 5 8 0 0
BITMAP
10
20
00
70
88
F8
80
70
ENDCHAR
STARTCHAR 202
ENCODING 234
SWIDTH 480 0
DWIDTH 6 0
BBX 5 8 0 0
BITMAP
20
50
00
70
88
F8
80
70
ENDCHAR
STARTCHAR 203
ENCODING 235
SWIDTH 480 0
DWIDTH 6 0
BBX 5 7 0 0
BITMAP
50
00
70
88
F8
80
70
ENDCHAR
STARTCHAR 204
ENCODING 236
SWIDTH 480 0
DWIDTH 6 0
BBX 2 8 2 0
BITMAP
80
40
00
80
80
80
80
80
ENDCHAR
STARTCHAR 205
ENCODING 237
SWIDTH 480 0
DWIDTH 6 0
BBX 2 8 1 0
BITMAP
40
80
00
40
40
40
40
40
ENDCHAR
STARTCHAR 206
ENCODING 238
SWIDTH 480 0
DWIDTH 6 0
BBX 3 8 1 0
BITMAP
40
A0
00
40
40
40
40
40
ENDCHAR
STARTCHAR 207
ENCODING 239
SWIDTH 480 0
DWIDTH 6 0
BBX 3 7 1 0
BITMAP
A0
00
40
40
40
40
40
ENDCHAR
STARTCHAR 208
ENCODING 240
SWIDTH 480 0
DWIDTH 6 0
BBX 5 8 0 0
BITMAP
60
60
10
78
88
88
88
70
ENDCHAR
STARTCHAR 209
ENCODING 241
SWIDTH 480 0
DWIDTH 6 0
BBX 5 8 0 0
BITMAP
50
A0
00
F0
88
88
88
88
ENDCHAR
STARTCHAR 210
ENCODING 242
SWIDTH 480 0
DWIDTH 6 0
BBX 5 8 0 0
BITMAP
40
20
00
70
88
88
88
70
ENDCHAR
STARTCHAR 211
ENCODING 243
SWIDTH 480 0
DWIDTH 6 0
BBX 5 8 0 0
BITMAP
10
20
00
70
88
88
88
70
ENDCHAR
STARTCHAR 212
ENCODING 244
SWIDTH 480 0
DWIDTH 6 0
BBX 5 8 0 0
BITMAP
20
50
00
70
88
88
88
70
ENDCHAR
STARTCHAR 213
ENCODING 245
SWIDTH 480 0
DWIDTH 6 0
BBX 5 8 0 0
BITMAP
50
A0
00
70
88
88
88
70
ENDCHAR
STARTCHAR 214
ENCODING 246
SWIDTH 480 0
DWIDTH 6 0
BBX 5 7 0 0
BITMAP
50
00
70
88
88
88
70
ENDCHAR
STARTCHAR 215
ENCODING 247
SWIDTH 480 0
DWIDTH 6 0
BBX 5 5 0 1
BITMAP
20
00
F8
00
20
ENDCHAR
STARTCHAR 216
ENCODING 248
SWIDTH 480 0
DWIDTH 6 0
BBX 5 5 0 0
BITMAP
70
98
A8
C8
70
ENDCHAR
STARTCHAR 217
ENCODING 249
SWIDTH 480 0
DWIDTH 6 0
BBX 5 8 0 0
BITMAP
40
20
00
88
88
88
88
78
ENDCHAR
STARTCHAR 218
ENCODING 250
SWIDTH 480 0
DWIDTH 6 0
BBX 5 8 0 0
BITMAP
10
20
00
88
88
88
88
78
ENDCHAR
STARTCHAR 219
ENCODING 251
SWIDTH 480 0
DWIDTH 6 0
BBX 5 8 0 0
BITMAP
20
50
00
88
88
88
88
78
ENDCHAR
STARTCHAR 220
ENCODING 252
SWIDTH 480 0
DWIDTH 6 0
BBX 5 7 0 0
BITMAP
50
00
88
88
88
88
78
ENDCHAR
STARTCHAR 221
ENCODING 253
SWIDTH 480 0
DWIDTH 6 0
BBX 5 10 0 -2
BITMAP
10
20
00
88
88
88
88
78
08
70
ENDCHAR
STARTCHAR 222
ENCODING 254
SWIDTH 480 0
DWIDTH 6 0
BBX 5 9 0 -2
BITMAP
80
80
F0
88
88
88
F0
80
80
ENDCHAR
STARTCHAR 223
ENCODING 255
SWIDTH 480 0
DWIDTH 6 0
BBX 5 9 0 -2
BITMAP
50
00
88
88
88
88
78
08
70
ENDCHAR
STARTCHAR char8217
ENCODING 8217
SWIDTH 480 0
DWIDTH 6 0
BBX 1 3 2 5
BITMAP
80
80
80
ENDCHAR
STARTCHAR char8275
ENCODING 8275
SWIDTH 480 0
DWIDTH 6 0
BBX 6 2 0 2
BITMAP
64
98
ENDCHAR
STARTCHAR char8593
ENCODING 8593
SWIDTH 480 0
DWIDTH 6 0
BBX 3 7 1 0
BITMAP
40
E0
40
40
40
40
40
ENDCHAR
STARTCHAR char8593
ENCODING 8595
SWIDTH 480 0
DWIDTH 6 0
BBX 3 7 1 0
BITMAP
40
40
40
40
40
E0
40
ENDCHAR
STARTCHAR char9670
ENCODING 9670
SWIDTH 480 0
DWIDTH 6 0
BBX 5 5 0 0
BITMAP
20
70
F8
70
20
ENDCHAR
STARTCHAR char12316
ENCODING 12316
SWIDTH 480 0
DWIDTH 6 0
BBX 6 2 0 2
BITMAP
64
98
ENDCHAR
STARTCHAR char57503
ENCODING 57503
SWIDTH 480 0
DWIDTH 6 0
BBX 0 0 0 0
BITMAP
ENDCHAR
STARTCHAR char57504
ENCODING 57504
SWIDTH 480 0
DWIDTH 6 0
BBX 5 11 0 -2
BITMAP
80
90
B8
90
90
20
C0
80
80
80
80
ENDCHAR
STARTCHAR char57505
ENCODING 57505
SWIDTH 480 0
DWIDTH 6 0
BBX 6 9 0 -1
BITMAP
80
80
80
E0
00
24
34
2C
24
ENDCHAR
STARTCHAR char57506
ENCODING 57506
SWIDTH 480 0
DWIDTH 6 0
BBX 6 8 0 0
BITMAP
78
84
84
FC
DC
DC
CC
FC
ENDCHAR
STARTCHAR char57520
ENCODING 57520
SWIDTH 480 0
DWIDTH 6 0
BBX 6 11 0 -2
BITMAP
80
C0
E0
F0
F8
FC
F8
F0
E0
C0
80
ENDCHAR
STARTCHAR char57521
ENCODING 57521
SWIDTH 480 0
DWIDTH 6 0
BBX 6 11 0 -2
BITMAP
80
40
20
10
08
04
08
10
20
40
80
ENDCHAR
STARTCHAR char57522
ENCODING 57522
SWIDTH 480 0
DWIDTH 6 0
BBX 6 11 0 -2
BITMAP
04
0C
1C
3C
7C
FC
7C
3C
1C
0C
04
ENDCHAR
STARTCHAR char57523
ENCODING 57523
SWIDTH 480 0
DWIDTH 6 0
BBX 6 11 0 -2
BITMAP
04
08
10
20
40
80
40
20
10
08
04
ENDCHAR
STARTCHAR char59904
ENCODING 59904
SWIDTH 480 0
DWIDTH 6 0
BBX 6 9 0 0
BITMAP
78
30
00
FC
FC
FC
FC
FC
FC
ENDCHAR
STARTCHAR char60068
ENCODING 59905
SWIDTH 480 0
DWIDTH 6 0
BBX 6 9 0 0
BITMAP
78
30
00
FC
84
84
84
84
FC
ENDCHAR
STARTCHAR char59904
ENCODING 59906
SWIDTH 480 0
DWIDTH 6 0
BBX 6 6 0 0
BITMAP
FC
FC
FC
FC
FC
FC
ENDCHAR
STARTCHAR char60068
ENCODING 59907
SWIDTH 480 0
DWIDTH 6 0
BBX 6 6 0 0
BITMAP
FC
84
84
84
84
FC
ENDCHAR
STARTCHAR char59930
ENCODING 59908
SWIDTH 480 0
DWIDTH 6 0
BBX 5 9 1 -1
BITMAP
38
78
F8
F8
F8
F8
F8
78
38
ENDCHAR
STARTCHAR char59931
ENCODING 59909
SWIDTH 480 0
DWIDTH 6 0
BBX 4 9 0 -1
BITMAP
C0
E0
F0
F0
F0
F0
F0
E0
C0
ENDCHAR
STARTCHAR char59930
ENCODING 59910
SWIDTH 480 0
DWIDTH 6 0
BBX 5 9 1 -1
BITMAP
38
78
D8
E8
F0
E8
D8
78
38
ENDCHAR
STARTCHAR char59931
ENCODING 59911
SWIDTH 480 0
DWIDTH 6 0
BBX 4 9 0 -1
BITMAP
C0
E0
B0
70
F0
70
B0
E0
C0
ENDCHAR
STARTCHAR char60144
ENCODING 59913
SWIDTH 480 0
DWIDTH 6 0
BBX 4 7 1 0
BITMAP
10
30
F0
F0
F0
30
10
ENDCHAR
STARTCHAR char60145
ENCODING 59914
SWIDTH 480 0
DWIDTH 6 0
BBX 1 3 0 2
BITMAP
80
80
80
ENDCHAR
STARTCHAR char60145
ENCODING 59915
SWIDTH 480 0
DWIDTH 6 0
BBX 3 7 0 0
BITMAP
40
20
A0
A0
A0
20
40
ENDCHAR
STARTCHAR char60145
ENCODING 59916
SWIDTH 480 0
DWIDTH 6 0
BBX 5 11 0 -2
BITMAP
20
10
48
28
A8
A8
A8
28
48
10
20
ENDCHAR
STARTCHAR char59918
ENCODING 59918
SWIDTH 480 0
DWIDTH 6 0
BBX 6 5 0 1
BITMAP
20
7C
FC
7C
20
ENDCHAR
STARTCHAR char59918
ENCODING 59919
SWIDTH 480 0
DWIDTH 6 0
BBX 6 5 0 1
BITMAP
10
F8
FC
F8
10
ENDCHAR
STARTCHAR char59916
ENCODING 59920
SWIDTH 480 0
DWIDTH 6 0
BBX 4 4 1 1
BITMAP
F0
F0
F0
F0
ENDCHAR
STARTCHAR char59904
ENCODING 59921
SWIDTH 480 0
DWIDTH 6 0
BBX 6 6 0 0
BITMAP
FC
FC
F4
AC
DC
FC
ENDCHAR
STARTCHAR char59904
ENCODING 59922
SWIDTH 480 0
DWIDTH 6 0
BBX 6 6 0 0
BITMAP
FC
FC
FC
FC
FC
FC
ENDCHAR
STARTCHAR char59904
ENCODING 59923
SWIDTH 480 0
DWIDTH 6 0
BBX 6 6 0 0
BITMAP
FC
CC
B4
B4
CC
FC
ENDCHAR
STARTCHAR char59930
ENCODING 59924
SWIDTH 480 0
DWIDTH 6 0
BBX 5 9 1 -1
BITMAP
38
40
80
80
80
80
80
40
38
ENDCHAR
STARTCHAR char59931
ENCODING 59925
SWIDTH 480 0
DWIDTH 6 0
BBX 4 9 0 -1
BITMAP
C0
20
10
10
10
10
10
20
C0
ENDCHAR
STARTCHAR char59930
ENCODING 59926
SWIDTH 480 0
DWIDTH 6 0
BBX 5 9 1 -1
BITMAP
38
40
A0
90
88
90
A0
40
38
ENDCHAR
STARTCHAR char59931
ENCODING 59927
SWIDTH 480 0
DWIDTH 6 0
BBX 4 9 0 -1
BITMAP
C0
20
50
90
10
90
50
20
C0
ENDCHAR
STARTCHAR char59930
ENCODING 59929
SWIDTH 480 0
DWIDTH 6 0
BBX 5 9 1 -1
BITMAP
F8
F8
F8
F8
F8
F8
F8
F8
F8
ENDCHAR
STARTCHAR char59931
ENCODING 59930
SWIDTH 480 0
DWIDTH 6 0
BBX 4 9 0 -1
BITMAP
F0
F0
F0
F0
F0
F0
F0
F0
F0
ENDCHAR
STARTCHAR char59930
ENCODING 59931
SWIDTH 480 0
DWIDTH 6 0
BBX 5 9 1 -1
BITMAP
F8
F8
D8
E8
F0
E8
D8
F8
F8
ENDCHAR
STARTCHAR char59931
ENCODING 59932
SWIDTH 480 0
DWIDTH 6 0
BBX 4 9 0 -1
BITMAP
F0
F0
B0
70
F0
70
B0
F0
F0
ENDCHAR
STARTCHAR char59934
ENCODING 59934
SWIDTH 480 0
DWIDTH 6 0
BBX 3 11 3 -2
BITMAP
20
60
E0
60
60
60
60
60
E0
60
20
ENDCHAR
STARTCHAR char59934
ENCODING 59935
SWIDTH 480 0
DWIDTH 6 0
BBX 3 11 0 -2
BITMAP
80
C0
E0
C0
C0
C0
C0
C0
E0
C0
80
ENDCHAR
STARTCHAR char59917
ENCODING 59936
SWIDTH 480 0
DWIDTH 6 0
BBX 4 4 1 1
BITMAP
60
F0
F0
60
ENDCHAR
STARTCHAR char60104
ENCODING 59944
SWIDTH 480 0
DWIDTH 6 0
BBX 6 1 0 3
BITMAP
FC
ENDCHAR
STARTCHAR char60105
ENCODING 59945
SWIDTH 480 0
DWIDTH 6 0
BBX 6 9 0 -1
BITMAP
10
28
28
18
E4
18
28
28
10
ENDCHAR
STARTCHAR char60106
ENCODING 59946
SWIDTH 480 0
DWIDTH 6 0
BBX 5 9 0 -1
BITMAP
18
30
60
C0
98
C0
60
30
18
ENDCHAR
STARTCHAR char60107
ENCODING 59947
SWIDTH 480 0
DWIDTH 6 0
BBX 5 1 0 3
BITMAP
D8
ENDCHAR
STARTCHAR char59950
ENCODING 59950
SWIDTH 480 0
DWIDTH 6 0
BBX 6 6 0 0
BITMAP
0C
1C
38
FC
78
30
ENDCHAR
STARTCHAR char59951
ENCODING 59951
SWIDTH 480 0
DWIDTH 6 0
BBX 4 5 0 1
BITMAP
C0
E0
30
10
10
ENDCHAR
STARTCHAR char59986
ENCODING 59952
SWIDTH 480 0
DWIDTH 6 0
BBX 4 7 2 0
BITMAP
60
F0
F0
F0
70
30
10
ENDCHAR
STARTCHAR char59987
ENCODING 59953
SWIDTH 480 0
DWIDTH 6 0
BBX 3 6 0 1
BITMAP
C0
E0
E0
E0
C0
80
ENDCHAR
STARTCHAR char60005
ENCODING 59954
SWIDTH 480 0
DWIDTH 6 0
BBX 5 9 1 -1
BITMAP
78
F8
80
A0
90
A0
80
80
78
ENDCHAR
STARTCHAR char60006
ENCODING 59955
SWIDTH 480 0
DWIDTH 6 0
BBX 4 9 0 -1
BITMAP
E0
F0
10
10
10
10
10
10
E0
ENDCHAR
STARTCHAR char59977
ENCODING 59956
SWIDTH 480 0
DWIDTH 6 0
BBX 4 8 2 0
BITMAP
30
30
20
20
20
20
E0
E0
ENDCHAR
STARTCHAR char59978
ENCODING 59957
SWIDTH 480 0
DWIDTH 6 0
BBX 4 8 0 0
BITMAP
F0
F0
10
10
10
10
70
70
ENDCHAR
STARTCHAR char59936
ENCODING 59958
SWIDTH 480 0
DWIDTH 6 0
BBX 4 9 2 -1
BITMAP
30
30
30
30
30
F0
70
30
10
ENDCHAR
STARTCHAR char59937
ENCODING 59959
SWIDTH 480 0
DWIDTH 6 0
BBX 4 9 0 -1
BITMAP
C0
C0
C0
C0
C0
F0
E0
C0
80
ENDCHAR
STARTCHAR char60030
ENCODING 59960
SWIDTH 480 0
DWIDTH 6 0
BBX 6 8 0 -1
BITMAP
08
08
08
1C
1C
1C
0C
04
ENDCHAR
STARTCHAR char60030
ENCODING 59961
SWIDTH 480 0
DWIDTH 6 0
BBX 3 8 0 -1
BITMAP
40
40
40
E0
E0
E0
C0
80
ENDCHAR
STARTCHAR char59951
ENCODING 59966
SWIDTH 480 0
DWIDTH 6 0
BBX 4 5 2 1
BITMAP
30
70
C0
80
80
ENDCHAR
STARTCHAR char59950
ENCODING 59967
SWIDTH 480 0
DWIDTH 6 0
BBX 6 6 0 0
BITMAP
C0
E0
70
FC
78
30
ENDCHAR
STARTCHAR char60033
ENCODING 59968
SWIDTH 480 0
DWIDTH 6 0
BBX 6 6 0 1
BITMAP
78
FC
BC
FC
FC
78
ENDCHAR
STARTCHAR char60034
ENCODING 59969
SWIDTH 480 0
DWIDTH 6 0
BBX 6 3 0 3
BITMAP
FC
F8
F0
ENDCHAR
STARTCHAR char60003
ENCODING 59970
SWIDTH 480 0
DWIDTH 6 0
BBX 5 9 1 -1
BITMAP
78
80
80
80
80
80
78
00
08
ENDCHAR
STARTCHAR char60004
ENCODING 59971
SWIDTH 480 0
DWIDTH 6 0
BBX 4 9 0 -1
BITMAP
E0
10
10
10
10
10
A0
C0
80
ENDCHAR
STARTCHAR char60150
ENCODING 59972
SWIDTH 480 0
DWIDTH 6 0
BBX 4 7 2 0
BITMAP
80
C0
E0
F0
E0
C0
80
ENDCHAR
STARTCHAR char60150
ENCODING 59973
SWIDTH 480 0
DWIDTH 6 0
BBX 4 7 0 0
BITMAP
80
C0
E0
F0
E0
C0
80
ENDCHAR
STARTCHAR char59936
ENCODING 59974
SWIDTH 480 0
DWIDTH 6 0
BBX 4 8 2 -1
BITMAP
70
30
30
30
F0
70
30
10
ENDCHAR
STARTCHAR char59937
ENCODING 59975
SWIDTH 480 0
DWIDTH 6 0
BBX 3 6 0 0
BITMAP
80
80
80
E0
C0
80
ENDCHAR
STARTCHAR char60046
ENCODING 59976
SWIDTH 480 0
DWIDTH 6 0
BBX 3 9 3 -1
BITMAP
20
E0
80
A0
A0
A0
A0
80
E0
ENDCHAR
STARTCHAR char60046
ENCODING 59977
SWIDTH 480 0
DWIDTH 6 0
BBX 3 9 0 -1
BITMAP
80
E0
20
A0
A0
A0
A0
20
E0
ENDCHAR
STARTCHAR char59982
ENCODING 59982
SWIDTH 480 0
DWIDTH 6 0
BBX 5 9 1 -1
BITMAP
08
00
28
40
F8
40
28
00
08
ENDCHAR
STARTCHAR char59982
ENCODING 59983
SWIDTH 480 0
DWIDTH 6 0
BBX 5 9 0 -1
BITMAP
80
00
80
00
F8
00
80
00
80
ENDCHAR
STARTCHAR char60036
ENCODING 59984
SWIDTH 480 0
DWIDTH 6 0
BBX 4 8 2 0
BITMAP
30
40
40
F0
E0
E0
F0
F0
ENDCHAR
STARTCHAR char60036
ENCODING 59985
SWIDTH 480 0
DWIDTH 6 0
BBX 3 8 0 0
BITMAP
80
40
40
E0
E0
E0
E0
E0
ENDCHAR
STARTCHAR char59926
ENCODING 59986
SWIDTH 480 0
DWIDTH 6 0
BBX 4 8 2 -1
BITMAP
30
60
E0
E0
E0
F0
70
30
ENDCHAR
STARTCHAR char59927
ENCODING 59987
SWIDTH 480 0
DWIDTH 6 0
BBX 4 8 0 -1
BITMAP
C0
E0
F0
F0
10
F0
E0
C0
ENDCHAR
STARTCHAR char60152
ENCODING 59988
SWIDTH 480 0
DWIDTH 6 0
BBX 6 7 0 0
BITMAP
04
0C
1C
3C
1C
0C
04
ENDCHAR
STARTCHAR char60152
ENCODING 59989
SWIDTH 480 0
DWIDTH 6 0
BBX 4 7 0 0
BITMAP
10
30
70
F0
70
30
10
ENDCHAR
STARTCHAR char59938
ENCODING 59990
SWIDTH 480 0
DWIDTH 6 0
BBX 4 8 2 -1
BITMAP
10
30
70
F0
30
30
30
10
ENDCHAR
STARTCHAR char59939
ENCODING 59991
SWIDTH 480 0
DWIDTH 6 0
BBX 3 7 0 -1
BITMAP
80
C0
E0
80
80
80
C0
ENDCHAR
STARTCHAR char60046
ENCODING 59992
SWIDTH 480 0
DWIDTH 6 0
BBX 3 9 3 -1
BITMAP
20
E0
80
80
A0
A0
A0
80
E0
ENDCHAR
STARTCHAR char60046
ENCODING 59993
SWIDTH 480 0
DWIDTH 6 0
BBX 3 9 0 -1
BITMAP
80
E0
20
20
A0
A0
A0
20
E0
ENDCHAR
STARTCHAR char59998
ENCODING 59998
SWIDTH 480 0
DWIDTH 6 0
BBX 5 10 1 -1
BITMAP
08
18
28
08
08
A8
A8
08
08
08
ENDCHAR
STARTCHAR char59999
ENCODING 59999
SWIDTH 480 0
DWIDTH 6 0
BBX 4 6 0 2
BITMAP
80
40
00
00
50
50
ENDCHAR
STARTCHAR char60016
ENCODING 60000
SWIDTH 480 0
DWIDTH 6 0
BBX 6 8 0 -1
BITMAP
0C
7C
FC
E4
FC
18
34
C0
ENDCHAR
STARTCHAR char60016
ENCODING 60001
SWIDTH 480 0
DWIDTH 6 0
BBX 6 8 0 -1
BITMAP
C0
F8
FC
9C
FC
60
B0
0C
ENDCHAR
STARTCHAR char59991
ENCODING 60002
SWIDTH 480 0
DWIDTH 6 0
BBX 5 7 1 0
BITMAP
F8
B8
D8
E8
D0
B8
F8
ENDCHAR
STARTCHAR char59992
ENCODING 60003
SWIDTH 480 0
DWIDTH 6 0
BBX 4 7 0 0
BITMAP
F0
D0
B0
70
B0
D0
F0
ENDCHAR
STARTCHAR char60137
ENCODING 60004
SWIDTH 480 0
DWIDTH 6 0
BBX 2 7 4 0
BITMAP
80
C0
C0
C0
C0
C0
80
ENDCHAR
STARTCHAR char60138
ENCODING 60005
SWIDTH 480 0
DWIDTH 6 0
BBX 2 3 0 2
BITMAP
80
C0
80
ENDCHAR
STARTCHAR char60131
ENCODING 60006
SWIDTH 480 0
DWIDTH 6 0
BBX 6 10 0 -2
BITMAP
4C
10
20
A0
20
10
08
4C
0C
04
ENDCHAR
STARTCHAR char60132
ENCODING 60007
SWIDTH 480 0
DWIDTH 6 0
BBX 6 10 0 -2
BITMAP
C8
20
10
14
10
20
40
C8
C0
80
ENDCHAR
STARTCHAR char60046
ENCODING 60008
SWIDTH 480 0
DWIDTH 6 0
BBX 3 9 3 -1
BITMAP
20
E0
80
80
80
A0
A0
80
E0
ENDCHAR
STARTCHAR char60046
ENCODING 60009
SWIDTH 480 0
DWIDTH 6 0
BBX 3 9 0 -1
BITMAP
80
E0
20
20
20
A0
A0
20
E0
ENDCHAR
STARTCHAR char60018
ENCODING 60016
SWIDTH 480 0
DWIDTH 6 0
BBX 6 8 0 -1
BITMAP
20
10
3C
6C
FC
BC
A0
18
ENDCHAR
STARTCHAR char60018
ENCODING 60017
SWIDTH 480 0
DWIDTH 6 0
BBX 5 8 0 -1
BITMAP
20
40
E0
B0
F8
E8
28
C0
ENDCHAR
STARTCHAR char59993
ENCODING 60018
SWIDTH 480 0
DWIDTH 6 0
BBX 5 7 1 0
BITMAP
F8
C0
A0
90
A8
C0
F8
ENDCHAR
STARTCHAR char59994
ENCODING 60019
SWIDTH 480 0
DWIDTH 6 0
BBX 4 7 0 0
BITMAP
F0
30
50
90
50
30
F0
ENDCHAR
STARTCHAR char60134
ENCODING 60020
SWIDTH 480 0
DWIDTH 6 0
BBX 2 7 3 0
BITMAP
C0
C0
C0
C0
C0
C0
C0
ENDCHAR
STARTCHAR char60135
ENCODING 60021
SWIDTH 480 0
DWIDTH 6 0
BBX 2 7 1 0
BITMAP
C0
C0
C0
C0
C0
C0
C0
ENDCHAR
STARTCHAR char59965
ENCODING 60022
SWIDTH 480 0
DWIDTH 6 0
BBX 5 7 1 1
BITMAP
38
40
80
80
80
40
38
ENDCHAR
STARTCHAR char59966
ENCODING 60023
SWIDTH 480 0
DWIDTH 6 0
BBX 4 8 0 -1
BITMAP
80
40
40
40
80
40
20
10
ENDCHAR
STARTCHAR char60046
ENCODING 60024
SWIDTH 480 0
DWIDTH 6 0
BBX 3 9 3 -1
BITMAP
20
E0
80
80
80
80
A0
80
E0
ENDCHAR
STARTCHAR char60046
ENCODING 60025
SWIDTH 480 0
DWIDTH 6 0
BBX 3 9 0 -1
BITMAP
80
E0
20
20
20
20
A0
20
E0
ENDCHAR
STARTCHAR char59950
ENCODING 60030
SWIDTH 480 0
DWIDTH 6 0
BBX 6 7 0 0
BITMAP
0C
1C
38
30
FC
78
30
ENDCHAR
STARTCHAR char59951
ENCODING 60031
SWIDTH 480 0
DWIDTH 6 0
BBX 5 6 0 1
BITMAP
E0
F0
38
18
18
18
ENDCHAR
STARTCHAR char60020
ENCODING 60032
SWIDTH 480 0
DWIDTH 6 0
BBX 4 9 2 -2
BITMAP
10
30
70
F0
D0
F0
20
50
A0
ENDCHAR
STARTCHAR char60020
ENCODING 60033
SWIDTH 480 0
DWIDTH 6 0
BBX 4 9 0 -2
BITMAP
80
C0
E0
F0
B0
F0
40
A0
50
ENDCHAR
STARTCHAR char59959
ENCODING 60034
SWIDTH 480 0
DWIDTH 6 0
BBX 4 7 2 0
BITMAP
10
50
90
90
80
40
30
ENDCHAR
STARTCHAR char59960
ENCODING 60035
SWIDTH 480 0
DWIDTH 6 0
BBX 3 6 0 0
BITMAP
40
20
20
20
40
80
ENDCHAR
STARTCHAR char60154
ENCODING 60036
SWIDTH 480 0
DWIDTH 6 0
BBX 2 7 2 0
BITMAP
C0
C0
C0
C0
C0
C0
C0
ENDCHAR
STARTCHAR char60038
ENCODING 60037
SWIDTH 480 0
DWIDTH 6 0
BBX 5 9 1 -1
BITMAP
F8
80
80
80
B8
80
80
80
F8
ENDCHAR
STARTCHAR char60038
ENCODING 60038
SWIDTH 480 0
DWIDTH 6 0
BBX 5 9 1 -1
BITMAP
F8
80
88
88
B8
88
88
80
F8
ENDCHAR
STARTCHAR char60039
ENCODING 60039
SWIDTH 480 0
DWIDTH 6 0
BBX 4 9 0 -1
BITMAP
F0
10
10
10
D0
10
10
10
F0
ENDCHAR
STARTCHAR char60046
ENCODING 60040
SWIDTH 480 0
DWIDTH 6 0
BBX 3 9 3 -1
BITMAP
20
E0
80
80
80
80
80
80
E0
ENDCHAR
STARTCHAR char60046
ENCODING 60041
SWIDTH 480 0
DWIDTH 6 0
BBX 3 9 0 -1
BITMAP
80
E0
20
20
20
20
20
20
E0
ENDCHAR
STARTCHAR char59951
ENCODING 60046
SWIDTH 480 0
DWIDTH 6 0
BBX 5 6 1 1
BITMAP
38
78
E0
C0
C0
C0
ENDCHAR
STARTCHAR char59950
ENCODING 60047
SWIDTH 480 0
DWIDTH 6 0
BBX 6 7 0 0
BITMAP
C0
E0
70
30
FC
78
30
ENDCHAR
STARTCHAR char59943
ENCODING 60048
SWIDTH 480 0
DWIDTH 6 0
BBX 5 9 1 -2
BITMAP
30
78
F8
F8
F8
F8
F8
78
38
ENDCHAR
STARTCHAR char59944
ENCODING 60049
SWIDTH 480 0
DWIDTH 6 0
BBX 5 11 0 -2
BITMAP
40
C0
A0
F0
F8
E0
C0
C0
E0
F8
F0
ENDCHAR
STARTCHAR char59972
ENCODING 60050
SWIDTH 480 0
DWIDTH 6 0
BBX 4 8 2 0
BITMAP
F0
80
80
80
B0
A0
A0
70
ENDCHAR
STARTCHAR char59973
ENCODING 60051
SWIDTH 480 0
DWIDTH 6 0
BBX 4 8 0 0
BITMAP
F0
10
10
10
D0
D0
D0
F0
ENDCHAR
STARTCHAR char60038
ENCODING 60053
SWIDTH 480 0
DWIDTH 6 0
BBX 5 9 1 -1
BITMAP
F8
F8
F8
F8
C0
F8
F8
F8
F8
ENDCHAR
STARTCHAR char60038
ENCODING 60054
SWIDTH 480 0
DWIDTH 6 0
BBX 5 9 1 -1
BITMAP
F8
F8
F0
F0
C0
F0
F0
F8
F8
ENDCHAR
STARTCHAR char60039
ENCODING 60055
SWIDTH 480 0
DWIDTH 6 0
BBX 4 9 0 -1
BITMAP
F0
F0
F0
F0
30
F0
F0
F0
F0
ENDCHAR
STARTCHAR char59962
ENCODING 60056
SWIDTH 480 0
DWIDTH 6 0
BBX 1 8 5 0
BITMAP
80
80
80
80
80
00
80
80
ENDCHAR
STARTCHAR char59963
ENCODING 60057
SWIDTH 480 0
DWIDTH 6 0
BBX 1 8 0 0
BITMAP
80
80
80
80
80
00
80
80
ENDCHAR
STARTCHAR char60058
ENCODING 60058
SWIDTH 480 0
DWIDTH 6 0
BBX 0 0 0 0
BITMAP
ENDCHAR
STARTCHAR char60059
ENCODING 60059
SWIDTH 480 0
DWIDTH 6 0
BBX 6 7 0 0
BITMAP
40
40
44
44
54
54
54
ENDCHAR
STARTCHAR char60060
ENCODING 60060
SWIDTH 480 0
DWIDTH 6 0
BBX 4 6 0 0
BITMAP
10
10
10
10
10
50
ENDCHAR
STARTCHAR char59982
ENCODING 60062
SWIDTH 480 0
DWIDTH 6 0
BBX 5 11 1 -2
BITMAP
08
08
08
08
E8
E8
E8
08
08
08
08
ENDCHAR
STARTCHAR char59982
ENCODING 60063
SWIDTH 480 0
DWIDTH 6 0
BBX 5 11 0 -2
BITMAP
80
80
80
80
B8
B8
B8
80
80
80
80
ENDCHAR
STARTCHAR char59963
ENCODING 60064
SWIDTH 480 0
DWIDTH 6 0
BBX 6 8 0 0
BITMAP
38
38
38
20
3C
3C
3C
1C
ENDCHAR
STARTCHAR char59964
ENCODING 60065
SWIDTH 480 0
DWIDTH 6 0
BBX 3 8 0 0
BITMAP
E0
E0
E0
20
E0
E0
E0
C0
ENDCHAR
STARTCHAR char60038
ENCODING 60066
SWIDTH 480 0
DWIDTH 6 0
BBX 4 7 2 0
BITMAP
30
30
30
F0
70
30
10
ENDCHAR
STARTCHAR char60039
ENCODING 60067
SWIDTH 480 0
DWIDTH 6 0
BBX 3 6 0 1
BITMAP
80
80
80
E0
C0
80
ENDCHAR
STARTCHAR char60039
ENCODING 60068
SWIDTH 480 0
DWIDTH 6 0
BBX 4 7 0 0
BITMAP
C0
C0
C0
F0
E0
C0
80
ENDCHAR
STARTCHAR char59930
ENCODING 60070
SWIDTH 480 0
DWIDTH 6 0
BBX 5 9 1 -1
BITMAP
F8
F8
C0
C0
C0
C0
C0
F8
F8
ENDCHAR
STARTCHAR char59931
ENCODING 60071
SWIDTH 480 0
DWIDTH 6 0
BBX 4 9 0 -1
BITMAP
F0
F0
30
30
30
30
30
F0
F0
ENDCHAR
STARTCHAR char59930
ENCODING 60072
SWIDTH 480 0
DWIDTH 6 0
BBX 5 9 1 -1
BITMAP
38
78
E0
C0
C8
C0
E0
78
38
ENDCHAR
STARTCHAR char59931
ENCODING 60073
SWIDTH 480 0
DWIDTH 6 0
BBX 4 9 0 -1
BITMAP
C0
E0
70
30
30
30
70
E0
C0
ENDCHAR
STARTCHAR char60075
ENCODING 60075
SWIDTH 480 0
DWIDTH 6 0
BBX 6 5 0 0
BITMAP
38
7C
FC
EC
44
ENDCHAR
STARTCHAR char60076
ENCODING 60076
SWIDTH 480 0
DWIDTH 6 0
BBX 6 5 0 -1
BITMAP
08
9C
FC
F8
F0
ENDCHAR
STARTCHAR char59998
ENCODING 60078
SWIDTH 480 0
DWIDTH 6 0
BBX 6 10 0 -1
BITMAP
0C
0C
0C
00
FC
FC
00
0C
0C
0C
ENDCHAR
STARTCHAR char59999
ENCODING 60079
SWIDTH 480 0
DWIDTH 6 0
BBX 5 10 0 -1
BITMAP
80
80
80
00
F8
F8
00
80
80
80
ENDCHAR
STARTCHAR char60121
ENCODING 60080
SWIDTH 480 0
DWIDTH 6 0
BBX 4 8 2 -1
BITMAP
C0
E0
70
30
30
70
E0
C0
ENDCHAR
STARTCHAR char60121
ENCODING 60081
SWIDTH 480 0
DWIDTH 6 0
BBX 4 8 0 -1
BITMAP
30
70
E0
C0
C0
E0
70
30
ENDCHAR
STARTCHAR char60082
ENCODING 60082
SWIDTH 480 0
DWIDTH 6 0
BBX 4 4 2 1
BITMAP
F0
F0
F0
F0
ENDCHAR
STARTCHAR char60083
ENCODING 60083
SWIDTH 480 0
DWIDTH 6 0
BBX 4 8 0 -1
BITMAP
80
C0
E0
F0
F0
E0
C0
80
ENDCHAR
STARTCHAR char60084
ENCODING 60084
SWIDTH 480 0
DWIDTH 6 0
BBX 3 8 2 -1
BITMAP
E0
E0
E0
00
00
E0
E0
E0
ENDCHAR
STARTCHAR char60085
ENCODING 60085
SWIDTH 480 0
DWIDTH 6 0
BBX 4 8 0 -1
BITMAP
70
70
70
00
00
70
70
70
ENDCHAR
STARTCHAR char60086
ENCODING 60086
SWIDTH 480 0
DWIDTH 6 0
BBX 4 7 2 0
BITMAP
10
30
70
F0
00
F0
F0
ENDCHAR
STARTCHAR char60086
ENCODING 60087
SWIDTH 480 0
DWIDTH 6 0
BBX 4 7 0 0
BITMAP
80
C0
E0
F0
00
F0
F0
ENDCHAR
STARTCHAR char60121
ENCODING 60088
SWIDTH 480 0
DWIDTH 6 0
BBX 4 8 2 -1
BITMAP
F0
F0
C0
C0
C0
C0
F0
F0
ENDCHAR
STARTCHAR char60121
ENCODING 60089
SWIDTH 480 0
DWIDTH 6 0
BBX 4 8 0 -1
BITMAP
F0
F0
30
30
30
30
F0
F0
ENDCHAR
STARTCHAR char60091
ENCODING 60091
SWIDTH 480 0
DWIDTH 6 0
BBX 5 9 1 -1
BITMAP
F8
80
80
98
A0
A0
80
80
F8
ENDCHAR
STARTCHAR char60092
ENCODING 60092
SWIDTH 480 0
DWIDTH 6 0
BBX 5 9 0 -1
BITMAP
F8
08
08
28
A8
48
08
08
F8
ENDCHAR
STARTCHAR char59908
ENCODING 60096
SWIDTH 480 0
DWIDTH 6 0
BBX 6 6 0 0
BITMAP
CC
CC
CC
CC
CC
CC
ENDCHAR
STARTCHAR char59909
ENCODING 60097
SWIDTH 480 0
DWIDTH 6 0
BBX 6 6 0 0
BITMAP
C0
F0
FC
FC
F0
C0
ENDCHAR
STARTCHAR char59910
ENCODING 60098
SWIDTH 480 0
DWIDTH 6 0
BBX 6 6 0 0
BITMAP
84
9C
FC
FC
9C
84
ENDCHAR
STARTCHAR char59911
ENCODING 60099
SWIDTH 480 0
DWIDTH 6 0
BBX 6 6 0 0
BITMAP
24
6C
FC
FC
6C
24
ENDCHAR
STARTCHAR char59912
ENCODING 60100
SWIDTH 480 0
DWIDTH 6 0
BBX 6 6 0 0
BITMAP
FC
FC
FC
FC
FC
FC
ENDCHAR
STARTCHAR char59910
ENCODING 60101
SWIDTH 480 0
DWIDTH 6 0
BBX 6 6 0 0
BITMAP
84
E4
FC
FC
E4
84
ENDCHAR
STARTCHAR char59911
ENCODING 60102
SWIDTH 480 0
DWIDTH 6 0
BBX 6 6 0 0
BITMAP
90
D8
FC
FC
D8
90
ENDCHAR
STARTCHAR char59915
ENCODING 60103
SWIDTH 480 0
DWIDTH 6 0
BBX 5 5 0 0
BITMAP
20
70
F8
00
F8
ENDCHAR
STARTCHAR char59923
ENCODING 60104
SWIDTH 480 0
DWIDTH 6 0
BBX 3 8 1 -1
BITMAP
20
20
20
20
20
60
E0
C0
ENDCHAR
STARTCHAR 142
ENCODING 60107
SWIDTH 480 0
DWIDTH 6 0
BBX 5 5 1 2
BITMAP
78
80
B8
30
28
ENDCHAR
STARTCHAR 142
ENCODING 60108
SWIDTH 480 0
DWIDTH 6 0
BBX 3 5 0 1
BITMAP
C0
20
20
20
C0
ENDCHAR
STARTCHAR char59920
ENCODING 60112
SWIDTH 480 0
DWIDTH 6 0
BBX 6 9 0 -1
BITMAP
30
FC
84
B4
B4
B4
B4
84
FC
ENDCHAR
STARTCHAR char59921
ENCODING 60113
SWIDTH 480 0
DWIDTH 6 0
BBX 6 9 0 -1
BITMAP
30
FC
84
84
84
B4
B4
84
FC
ENDCHAR
STARTCHAR char59922
ENCODING 60114
SWIDTH 480 0
DWIDTH 6 0
BBX 6 9 0 -1
BITMAP
30
FC
84
84
84
84
84
84
FC
ENDCHAR
STARTCHAR char59924
ENCODING 60116
SWIDTH 480 0
DWIDTH 6 0
BBX 6 8 0 0
BITMAP
FC
FC
78
30
30
78
FC
FC
ENDCHAR
STARTCHAR char59924
ENCODING 60117
SWIDTH 480 0
DWIDTH 6 0
BBX 6 8 0 0
BITMAP
FC
84
48
30
30
48
84
FC
ENDCHAR
STARTCHAR char60000
ENCODING 60119
SWIDTH 480 0
DWIDTH 6 0
BBX 6 10 0 -2
BITMAP
08
10
30
60
7C
F8
18
30
20
40
ENDCHAR
STARTCHAR 31
ENCODING 60123
SWIDTH 480 0
DWIDTH 6 0
BBX 2 2 4 5
BITMAP
40
80
ENDCHAR
STARTCHAR 31
ENCODING 60124
SWIDTH 480 0
DWIDTH 6 0
BBX 3 7 0 0
BITMAP
C0
20
20
40
80
00
80
ENDCHAR
STARTCHAR char59904
ENCODING 60128
SWIDTH 480 0
DWIDTH 6 0
BBX 6 6 0 0
BITMAP
FC
FC
FC
FC
FC
FC
ENDCHAR
STARTCHAR char59905
ENCODING 60129
SWIDTH 480 0
DWIDTH 6 0
BBX 6 6 0 0
BITMAP
EC
EC
EC
E0
EC
EC
ENDCHAR
STARTCHAR char59906
ENCODING 60130
SWIDTH 480 0
DWIDTH 6 0
BBX 6 6 0 0
BITMAP
F0
F0
F4
F4
04
3C
ENDCHAR
STARTCHAR char60048
ENCODING 60131
SWIDTH 480 0
DWIDTH 6 0
BBX 6 6 0 0
BITMAP
FC
FC
FC
00
DC
DC
ENDCHAR
STARTCHAR char60049
ENCODING 60132
SWIDTH 480 0
DWIDTH 6 0
BBX 6 6 0 0
BITMAP
EC
EC
EC
00
EC
EC
ENDCHAR
STARTCHAR char59984
ENCODING 60135
SWIDTH 480 0
DWIDTH 6 0
BBX 4 7 1 0
BITMAP
10
20
40
F0
20
40
80
ENDCHAR
STARTCHAR 51
ENCODING 60139
SWIDTH 480 0
DWIDTH 6 0
BBX 3 7 3 0
BITMAP
60
80
80
60
00
80
60
ENDCHAR
STARTCHAR 51
ENCODING 60140
SWIDTH 480 0
DWIDTH 6 0
BBX 2 7 0 0
BITMAP
80
40
00
80
40
40
80
ENDCHAR
STARTCHAR char59988
ENCODING 60144
SWIDTH 480 0
DWIDTH 6 0
BBX 5 5 0 0
BITMAP
50
A8
88
50
20
ENDCHAR
STARTCHAR char59989
ENCODING 60145
SWIDTH 480 0
DWIDTH 6 0
BBX 5 5 0 0
BITMAP
50
F8
F8
70
20
ENDCHAR
STARTCHAR char59970
ENCODING 60146
SWIDTH 480 0
DWIDTH 6 0
BBX 6 8 0 0
BITMAP
30
A8
6C
38
38
6C
A8
30
ENDCHAR
STARTCHAR char59941
ENCODING 60147
SWIDTH 480 0
DWIDTH 6 0
BBX 6 6 0 0
BITMAP
F0
08
E4
14
D4
D4
ENDCHAR
STARTCHAR char59942
ENCODING 60148
SWIDTH 480 0
DWIDTH 6 0
BBX 5 9 1 -1
BITMAP
20
28
28
A8
B0
A0
60
20
20
ENDCHAR
STARTCHAR char8593
ENCODING 60149
SWIDTH 480 0
DWIDTH 6 0
BBX 6 7 0 -1
BITMAP
78
78
78
78
FC
78
30
ENDCHAR
STARTCHAR char60001
ENCODING 60151
SWIDTH 480 0
DWIDTH 6 0
BBX 5 9 0 -1
BITMAP
08
10
20
60
F8
30
20
40
80
ENDCHAR
STARTCHAR char60139
ENCODING 60155
SWIDTH 480 0
DWIDTH 6 0
BBX 4 2 2 2
BITMAP
D0
D0
ENDCHAR
STARTCHAR char60140
ENCODING 60156
SWIDTH 480 0
DWIDTH 6 0
BBX 5 6 0 0
BITMAP
20
30
B8
B8
30
20
ENDCHAR
STARTCHAR char65280
ENCODING 65297
SWIDTH 480 0
DWIDTH 6 0
BBX 3 2 3 2
BITMAP
E0
E0
ENDCHAR
STARTCHAR char65280
ENCODING 65298
SWIDTH 480 0
DWIDTH 6 0
BBX 3 2 0 2
BITMAP
E0
E0
ENDCHAR
STARTCHAR char65374
ENCODING 65374
SWIDTH 480 0
DWIDTH 6 0
BBX 6 2 0 2
BITMAP
64
98
ENDCHAR
ENDFONT
